# xmcd CD database file
#
# Track frame offsets:
#	150
#	18406
#	40428
#	61544
#	80226
#	98175
#	124808
#	143742
#	163444
#	184091
#	205370
#	224679
#	244282
#	263006
#	283788
#	301484
#
# Disc length: 4306 seconds
#
# Revision: 0
# Processed by: cddbd v1.5.1PL0 Copyright (c) Steve Scherf et al.
# Submitted via: CDex 1.51
#
DISCID=f810d010
DTITLE=Bonny Cepeda - Grandes Exitos
DYEAR=1900
DGENRE=Merengue
TTITLE0=Una Fotografía
TTITLE1=Cuarto De Hotel 303
TTITLE2=Asesina
TTITLE3=Bruja Hechicera
TTITLE4=Dariana
TTITLE5=Que Canten Los Niños
TTITLE6=Pásame La Mano Morena
TTITLE7=El Nene Quiere Un Sobito
TTITLE8=Aquí Se Goza
TTITLE9=Como La Mía... Ninguna
TTITLE10=Mami Ven Pa'ca
TTITLE11=Las Mujeres Que Quieran Bailar
TTITLE12=Yo Bailo Así
TTITLE13=Ay Papi
TTITLE14=Llegó El Calor
TTITLE15=Mi Medicina
EXTD=
EXTT0=
EXTT1=
EXTT2=
EXTT3=
EXTT4=
EXTT5=
EXTT6=
EXTT7=
EXTT8=
EXTT9=
EXTT10=
EXTT11=
EXTT12=
EXTT13=
EXTT14=
EXTT15=
PLAYORDER=
